<?xml version="1.0" encoding="UTF-8" standalone="no"?>
<svg
     xmlns:dc="http://purl.org/dc/elements/1.1/"
     xmlns:cc="http://creativecommons.org/ns#"
     xmlns:rdf="http://www.w3.org/1999/02/22-rdf-syntax-ns#"
     xmlns:svg="http://www.w3.org/2000/svg"
     xmlns="http://www.w3.org/2000/svg"
     viewBox="0 0 20 20"
     version="1.1"
     id="svg8370">
    <metadata
         id="metadata821">
        <rdf:RDF>
            <cc:Work
                 rdf:about="">
                <dc:format>image/svg+xml</dc:format>
                <dc:type
                     rdf:resource="http://purl.org/dc/dcmitype/StillImage" />
                <dc:title></dc:title>
            </cc:Work>
        </rdf:RDF>
    </metadata>
    <defs
         id="defs8374" />
    <path
         id="path866"
         d="m 4.0000001,16.000014 c 0.00674,-0.01755 0.2118494,-0.832071 0.4558066,-1.810037 0.2439572,-0.977966 0.4471052,-1.783981 0.4514401,-1.791145 0.00433,-0.0072 0.035783,0.01297 0.069886,0.04474 0.1393406,0.129811 0.446877,0.284581 0.5654787,0.284581 0.031428,0 0.034629,0.02206 0.035465,0.244409 8.019e-4,0.213172 0.00768,0.265233 0.053823,0.407349 0.1611194,0.496233 0.5121765,0.847239 1.0078758,1.007723 0.1414518,0.0458 0.1955444,0.05298 0.410184,0.05446 l 0.2472448,0.0017 0.042689,0.156414 c 0.047395,0.173656 0.126605,0.323948 0.228613,0.433767 0.043056,0.04635 0.058893,0.07573 0.043797,0.08124 -0.013005,0.0048 -0.8203574,0.207774 -1.7941155,0.451163 C 4.8444295,15.809768 4.0342259,16.014082 4.017735,16.02041 3.995669,16.02891 3.990986,16.02351 4,16 Z m 4.208829,-1.410113 C 8.0355709,14.480024 7.9786467,14.275048 8.072433,14.098758 c 0.024776,-0.04657 1.1891362,-1.224454 2.96544,-2.999882 l 2.924648,-2.9232048 0.263492,0.2634922 0.263492,0.263492 -2.942437,2.9425256 c -1.61834,1.618389 -2.9696187,2.955435 -3.0028414,2.971214 -0.1004532,0.04771 -0.2351701,0.03707 -0.3353975,-0.02649 z M 6.9409549,13.684458 C 6.7899056,13.654599 6.6554858,13.583249 6.5460217,13.474826 6.3749199,13.305353 6.289361,13.044109 6.3342088,12.828079 6.3898896,12.559865 6.2044054,12.757621 9.4125924,9.5460423 l 2.9585346,-2.9616614 0.532054,0.5319587 0.532055,0.5319585 -2.90412,2.9049149 c -1.5972663,1.597703 -2.9472511,2.937984 -2.9999668,2.978402 -0.1681681,0.12894 -0.4032038,0.189807 -0.5901943,0.152843 z M 5.6369315,11.981207 c -0.084752,-0.02698 -0.1824897,-0.110999 -0.2241701,-0.192699 -0.045505,-0.0892 -0.049715,-0.228321 -0.00947,-0.313051 0.015779,-0.03322 1.3528255,-1.384501 2.9712141,-3.0028419 L 11.317028,5.5301784 11.580583,5.7937332 11.844138,6.057288 8.9208702,8.9818489 c -1.6864681,1.6872151 -2.9536551,2.9403961 -2.995091,2.9619881 -0.08552,0.04456 -0.2140304,0.06119 -0.2888477,0.03737 z M 13.434021,6.5842004 11.847089,4.9976042 12.200301,4.6504175 c 0.396785,-0.3900162 0.514197,-0.4705395 0.813685,-0.5580394 0.458842,-0.1340574 0.867527,-0.064 1.293521,0.2217361 0.11446,0.076774 1.306252,1.2632216 1.394733,1.3884776 0.179901,0.2546737 0.271106,0.5207454 0.285836,0.8338658 0.0082,0.173705 0.0027,0.227538 -0.03996,0.3929713 -0.09533,0.3697115 -0.183609,0.5022297 -0.630597,0.9465623 l -0.296565,0.2948053 z"
         style="fill:#333333;fill-opacity:1;stroke-width:0.01916933" />
</svg>
