<?xml version="1.0" encoding="UTF-8" standalone="no"?>
<svg
     xmlns:dc="http://purl.org/dc/elements/1.1/"
     xmlns:cc="http://creativecommons.org/ns#"
     xmlns:rdf="http://www.w3.org/1999/02/22-rdf-syntax-ns#"
     xmlns:svg="http://www.w3.org/2000/svg"
     xmlns="http://www.w3.org/2000/svg"
     id="svg8370"
     version="1.1"
     viewBox="0 0 20 20">
    <metadata
         id="metadata821">
        <rdf:RDF>
            <cc:Work
                 rdf:about="">
                <dc:format>image/svg+xml</dc:format>
                <dc:type
                     rdf:resource="http://purl.org/dc/dcmitype/StillImage" />
                <dc:title></dc:title>
            </cc:Work>
        </rdf:RDF>
    </metadata>
    <defs
         id="defs8374" />
    <path
         id="path4556"
         d="m 8.7628977,15.975418 c -0.4546057,-0.08125 -0.6603747,-0.497224 -0.592518,-1.19781 0.03507,-0.362076 0.019398,-0.289992 0.5214876,-2.398702 0.2455435,-1.03125 0.45176,-1.938884 0.4582587,-2.016964 0.014929,-0.179365 -0.023361,-0.23075 -0.154383,-0.20718 -0.2173772,0.0391 -0.8858707,0.328844 -1.2301015,0.533155 -0.1009674,0.05993 -0.1921219,0.108958 -0.2025654,0.108958 -0.021527,0 -0.3057169,-0.471921 -0.3044236,-0.50552 0.00123,-0.03191 0.4313266,-0.3697394 0.796035,-0.625266 1.414587,-0.991106 3.0119615,-1.6306678 3.5039065,-1.4029048 0.272944,0.1263689 0.385831,0.4550806 0.340659,0.9919479 -0.03611,0.4291256 -0.0282,0.3950283 -0.632046,2.7253369 -0.44328,1.71066 -0.417336,1.604111 -0.43664,1.793212 -0.01933,0.189311 0.02503,0.318198 0.117501,0.341406 0.185389,0.04653 0.874744,-0.287638 1.416283,-0.686549 0.03355,-0.02471 0.06119,0.0023 0.208259,0.203079 0.09327,0.127366 0.169578,0.241925 0.169578,0.254575 0,0.02823 -0.309309,0.320906 -0.582663,0.551324 -0.579258,0.488271 -1.20845,0.894256 -1.795832,1.158755 -0.7037667,0.316908 -1.2393173,0.443752 -1.6007953,0.379147 z M 10.648726,6.6229623 C 10.333463,6.5330713 10.148983,6.3917863 10.017742,6.1397205 9.9153276,5.9430197 9.8828125,5.7936346 9.8828125,5.5198076 c 0,-0.439449 0.1666955,-0.8071955 0.5074125,-1.1194008 0.436514,-0.3999853 1.161662,-0.5159315 1.671721,-0.2672966 0.258877,0.1261931 0.491473,0.4284161 0.562938,0.7314534 0.03859,0.1636471 0.03948,0.4487478 0.0019,0.6119989 -0.07244,0.3147075 -0.315456,0.6790431 -0.584827,0.8767793 -0.390942,0.2869779 -0.95174,0.3955043 -1.393234,0.2696205 z"
         style="fill:#333333;stroke-width:0.0234375;fill-opacity:1" />
</svg>
