<?xml version="1.0" encoding="UTF-8" standalone="no"?>
<svg
     xmlns:dc="http://purl.org/dc/elements/1.1/"
     xmlns:cc="http://creativecommons.org/ns#"
     xmlns:rdf="http://www.w3.org/1999/02/22-rdf-syntax-ns#"
     xmlns:svg="http://www.w3.org/2000/svg"
     xmlns="http://www.w3.org/2000/svg"
     id="svg8370"
     version="1.1"
     viewBox="0 0 20 20">
    <defs
         id="defs8374" />
    <path
         style="stroke-width:0.0;fill:#333333"
         d="m 15.714963,4.2849144 v 0 c -0.63373,-0.6336821 -2.288814,-0.00584 -3.696785,1.4021894 l 2.1e-5,2.6e-5 -4.7e-5,-2.6e-5 C 11.785321,5.919908 11.574053,6.1595262 11.386211,6.4001682 11.151103,7.7452215 10.562257,8.6990278 9.87281,8.6990759 v 2.58e-5 c -0.222685,0 -0.434859,-0.099569 -0.628022,-0.2795993 l -0.0012,3.438e-4 -0.51037,-0.5103959 c -0.288565,-0.2885429 -0.756329,-0.2885429 -1.044898,0 L 5.70743,9.8902927 5.60286,9.9948597 4.178328,11.419444 c -0.288521,0.288568 -0.288521,0.75638 2.2e-5,1.044901 l 3.357163,3.357207 c 0.288543,0.288543 0.756306,0.288517 1.044872,0 l 1.424561,-1.424557 0.104613,-0.104549 1.980842,-1.980868 c 0.288469,-0.288565 0.288469,-0.756355 -2.2e-5,-1.044898 l -0.510374,-0.51037 3.7e-4,-0.0011 C 11.400438,10.562048 11.30089,10.3499 11.300869,10.127237 v -2.2e-5 c 0,-2.6e-5 0,-2.6e-5 0,-2.6e-5 9.6e-5,-0.6894694 0.953802,-1.2782678 2.298685,-1.5133753 0.240694,-0.1878686 0.480361,-0.3991625 0.713239,-0.6320147 l -7.71e-4,-7.427e-4 7.71e-4,7.427e-4 C 15.720716,6.5736955 16.348516,4.9186853 15.71486,4.2848811 Z m -5.668932,9.3189716 3.65e-4,3.71e-4 -1.37629,1.376316 -7.4e-5,-7.5e-5 -0.359914,0.359962 c -0.147025,0.146956 -0.38522,0.146956 -0.532176,0 L 4.659491,12.221984 C 4.512588,12.07508 4.51244,11.836785 4.659418,11.689808 l 0.359935,-0.359913 v -2.3e-5 l 1.35596,-1.3559083 2.2e-5,2.2e-5 C 6.705556,9.6438426 7.135465,9.5384397 7.335781,9.7387087 7.53605,9.9389777 7.434741,10.373027 7.104645,10.70327 l -2.6e-5,2.6e-5 c -0.330169,0.330144 -0.431428,0.764219 -0.231211,0.964436 0.200339,0.200317 0.631941,0.09663 0.98252,-0.253922 l 3.43e-4,3.43e-4 c 0.327204,-0.314219 0.74364,-0.411363 0.939716,-0.215261 0.196177,0.196151 0.102983,0.616483 -0.211046,0.943906 l 0.0012,0.0011 c -0.350557,0.350552 -0.451815,0.784627 -0.251597,0.984869 0.200339,0.200295 0.631987,0.09658 0.96211,-0.233561 l 0.02045,-0.02037 3.21e-4,2.95e-4 c 0.327227,-0.314198 0.743614,-0.411315 0.939764,-0.215165 0.196029,0.196077 0.102835,0.61641 -0.21112,0.943857 z m 1.362082,-1.893522 c 0.146956,0.146978 0.146956,0.385173 -2.6e-5,0.532103 L 10.985577,12.665003 7.334997,9.0143752 7.757534,8.591865 C 7.904489,8.4449094 8.142731,8.4449574 8.289662,8.5918872 Z M 14,6 c -0.230405,-0.2304009 -0.230427,-0.6039604 2.2e-5,-0.8344391 0.23043,-0.2304269 0.603964,-0.230375 0.834417,0 C 15.06484,5.3960137 15.06484,5.7695733 14.834461,6 14.603986,6.2304307 14.230452,6.2304528 14,6 Z" />
</svg>
