<?xml version="1.0" encoding="UTF-8" standalone="no"?>
<svg
     xmlns:dc="http://purl.org/dc/elements/1.1/"
     xmlns:cc="http://creativecommons.org/ns#"
     xmlns:rdf="http://www.w3.org/1999/02/22-rdf-syntax-ns#"
     xmlns:svg="http://www.w3.org/2000/svg"
     xmlns="http://www.w3.org/2000/svg"
     id="svg8370"
     version="1.1"
     viewBox="0 0 20 20">
    <metadata
         id="metadata8376">
        <rdf:RDF>
            <cc:Work
                 rdf:about="">
                <dc:format>image/svg+xml</dc:format>
                <dc:type
                     rdf:resource="http://purl.org/dc/dcmitype/StillImage" />
                <dc:title></dc:title>
            </cc:Work>
        </rdf:RDF>
    </metadata>
    <defs
         id="defs8374" />
    <g
         id="g6950">
        <path
             id="path6913"
             d="M 6,6 3.6339746,5.3660255 1.2679492,4.7320508 2.9999999,2.9999999 4.7320508,1.2679492 5.3660255,3.6339746 Z"
             style="fill:#333333;fill-opacity:1;stroke:none;stroke-width:1;stroke-linecap:butt;stroke-linejoin:round;stroke-miterlimit:4;stroke-dasharray:none;stroke-dashoffset:0;stroke-opacity:1"
             transform="matrix(0.3169873,-0.54903811,0.54903811,0.3169873,1.8038475,6.1961524)" />
        <path
             id="path6942"
             d="M 5,5 8,8"
             style="fill:none;stroke:#333333;stroke-width:1px;stroke-linecap:butt;stroke-linejoin:miter;stroke-opacity:1" />
    </g>
    <g
         id="g6967"
         transform="rotate(-180,10,10)">
        <path
             transform="matrix(0.3169873,-0.54903811,0.54903811,0.3169873,1.8038475,6.1961524)"
             style="fill:#333333;fill-opacity:1;stroke:none;stroke-width:1;stroke-linecap:butt;stroke-linejoin:round;stroke-miterlimit:4;stroke-dasharray:none;stroke-dashoffset:0;stroke-opacity:1"
             d="M 6,6 3.6339746,5.3660255 1.2679492,4.7320508 2.9999999,2.9999999 4.7320508,1.2679492 5.3660255,3.6339746 Z"
             id="path6963" />
        <path
             style="fill:none;stroke:#333333;stroke-width:1px;stroke-linecap:butt;stroke-linejoin:miter;stroke-opacity:1"
             d="M 5,5 8,8"
             id="path6965" />
    </g>
    <g
         id="g6973"
         transform="rotate(-90,10,9.9999996)">
        <path
             transform="matrix(0.3169873,-0.54903811,0.54903811,0.3169873,1.8038475,6.1961524)"
             style="fill:#333333;fill-opacity:1;stroke:none;stroke-width:1;stroke-linecap:butt;stroke-linejoin:round;stroke-miterlimit:4;stroke-dasharray:none;stroke-dashoffset:0;stroke-opacity:1"
             d="M 6,6 3.6339746,5.3660255 1.2679492,4.7320508 2.9999999,2.9999999 4.7320508,1.2679492 5.3660255,3.6339746 Z"
             id="path6969" />
        <path
             style="fill:none;stroke:#333333;stroke-width:1px;stroke-linecap:butt;stroke-linejoin:miter;stroke-opacity:1"
             d="M 5,5 8,8"
             id="path6971" />
    </g>
    <g
         transform="rotate(90,10,10)"
         id="g6979">
        <path
             id="path6975"
             d="M 6,6 3.6339746,5.3660255 1.2679492,4.7320508 2.9999999,2.9999999 4.7320508,1.2679492 5.3660255,3.6339746 Z"
             style="fill:#333333;fill-opacity:1;stroke:none;stroke-width:1;stroke-linecap:butt;stroke-linejoin:round;stroke-miterlimit:4;stroke-dasharray:none;stroke-dashoffset:0;stroke-opacity:1"
             transform="matrix(0.3169873,-0.54903811,0.54903811,0.3169873,1.8038475,6.1961524)" />
        <path
             id="path6977"
             d="M 5,5 8,8"
             style="fill:none;stroke:#333333;stroke-width:1px;stroke-linecap:butt;stroke-linejoin:miter;stroke-opacity:1" />
    </g>
</svg>
